<svg width="572" height="457" viewBox="0 0 572 457" fill="none" xmlns="http://www.w3.org/2000/svg">
<path d="M423.46 439.103H59.8818V207.945H423.46V439.103Z" fill="#DAD2BF"/>
<path d="M60.8187 57.7734L15.9418 177.684H80.5677L112.625 57.7734H60.8187Z" fill="#0F40BF"/>
<path d="M112.626 57.7734L80.5679 177.684H145.189L164.437 57.7734H112.626Z" fill="#ADE4E8"/>
<path d="M164.436 57.7734L145.188 177.684H209.813L216.243 57.7734H164.436Z" fill="#0F40BF"/>
<path d="M216.243 57.7734L209.814 177.684H274.46L268.055 57.7734H216.243Z" fill="#ADE4E8"/>
<path d="M268.055 57.7734L274.459 177.684H339.085L319.862 57.7734H268.055Z" fill="#0F40BF"/>
<path d="M319.862 57.7734L339.086 177.684H403.732L371.649 57.7734H319.862Z" fill="#ADE4E8"/>
<path d="M371.648 57.7734L403.731 177.684H468.357L423.46 57.7734H371.648Z" fill="#0F40BF"/>
<path d="M15.9418 177.684V222.756C15.9418 242.404 30.4221 258.355 48.2548 258.355C66.0874 258.355 80.5677 242.404 80.5677 222.756V177.684H15.9418Z" fill="#174FE1"/>
<path d="M80.5679 177.684V222.756C80.5679 242.404 95.0432 258.355 112.881 258.355C130.739 258.355 145.189 242.404 145.189 222.756V177.684H80.5679Z" fill="white"/>
<path d="M145.188 177.684V222.756C145.188 242.404 159.668 258.355 177.526 258.355C195.358 258.355 209.813 242.404 209.813 222.756V177.684H145.188Z" fill="#174FE1"/>
<path d="M209.814 177.684V222.756C209.814 242.404 224.289 258.355 242.152 258.355C259.984 258.355 274.46 242.404 274.46 222.756V177.684H209.814Z" fill="white"/>
<path d="M274.459 177.684V222.756C274.459 242.404 288.939 258.355 306.772 258.355C324.63 258.355 339.085 242.404 339.085 222.756V177.684H274.459Z" fill="#174FE1"/>
<path d="M339.085 177.684V222.756C339.085 242.404 353.56 258.355 371.398 258.355C389.256 258.355 403.731 242.404 403.731 222.756V177.684H339.085Z" fill="white"/>
<path d="M403.73 177.684V222.756C403.73 242.404 418.186 258.355 436.018 258.355C453.876 258.355 468.356 242.404 468.356 222.756V177.684H403.73Z" fill="#174FE1"/>
<path d="M423.46 57.7745H59.8818V6.52734H423.46V57.7745Z" fill="#C4C5C8"/>
<path d="M432.793 8.22357C432.793 12.7787 429.436 16.5077 425.303 16.5077H58.042C53.904 16.5077 50.5516 12.7787 50.5516 8.22357C50.5516 3.66838 53.904 0 58.042 0H425.303C429.436 0 432.793 3.66838 432.793 8.22357Z" fill="white"/>
<path d="M483.338 456.997H0L0.0150107 439.102H483.353L483.328 456.997" fill="white"/>
<path d="M180.729 439.103H92.0709V267.113H180.729V439.103Z" fill="white"/>
<path d="M170.716 439.106H102.057V282.258H170.716V439.106Z" fill="#72D0E1"/>
<path d="M396.797 403.334H216.243V267.113H396.797V403.334Z" fill="white"/>
<path d="M385.849 395.085H227.191V275.367H385.849V395.085Z" fill="#72D0E1"/>
<path d="M102.057 360.681H170.716V342.785H102.057V360.681Z" fill="white"/>
<path d="M571.999 341.088C571.999 405.086 524.906 457 466.814 457C408.698 457 361.61 405.086 361.61 341.088C361.61 277.089 408.698 225.176 466.814 225.176C524.906 225.176 571.999 277.089 571.999 341.088Z" fill="#F68F34"/>
<path d="M548.364 341.088C548.364 390.694 511.843 430.931 466.816 430.931C421.794 430.931 385.268 390.694 385.268 341.088C385.268 291.483 421.794 251.246 466.816 251.246C511.843 251.246 548.364 291.483 548.364 341.088Z" fill="#FABB34"/>
<path d="M494.032 310.662C494.032 310.662 492.541 291.455 469.589 289.566C451.301 288.068 440.354 295.179 438.462 308.629C438.462 308.629 435.865 327.864 446.738 334.06C459.627 341.397 495.167 342.311 495.543 368.381C495.543 368.381 496.984 391.526 467.723 391.526C467.723 391.526 439.523 392.363 438.057 372.909" stroke="#F68F34" stroke-width="10.5533" stroke-miterlimit="10" stroke-linecap="round"/>
<path d="M454.63 272.863V290.621" stroke="#F68F34" stroke-width="10.5533" stroke-miterlimit="10" stroke-linecap="round"/>
<path d="M475.265 272.863V290.621" stroke="#F68F34" stroke-width="10.5533" stroke-miterlimit="10" stroke-linecap="round"/>
<path d="M456.497 391.527V409.34" stroke="#F68F34" stroke-width="10.5533" stroke-miterlimit="10" stroke-linecap="round"/>
<path d="M477.132 391.527V409.34" stroke="#F68F34" stroke-width="10.5533" stroke-miterlimit="10" stroke-linecap="round"/>
</svg>
