<svg viewBox="0 0 126 111" fill="none" xmlns="http://www.w3.org/2000/svg">
<path d="M66.4071 1H33.4993C15.5791 1 1 15.5967 1 33.5401V42.2381C1 56.236 9.89003 68.6262 23.1219 73.0709L23.5981 73.2323L23.3464 73.6652C21.6088 76.6636 19.5411 81.3692 16.4321 88.0477C15.9378 89.105 16.1865 89.9405 17.0108 90.7701C17.5292 91.2904 17.802 91.2029 18.554 91.2029C18.9519 91.2029 19.4914 90.9299 19.8395 90.7701L38.037 82.8549L56.5556 74.3605L66.4071 74.7813C84.3273 74.7813 98.9064 60.1816 98.9064 42.2396V33.5401C98.9064 15.5967 84.3273 1 66.4071 1ZM22.2191 82.4688C24.3817 78.1703 25.6748 75.0045 26.463 73.9744L26.6559 73.7813L26.4223 74.0287C27.1563 73.5838 27.1246 73.089 27.2346 72.2369C27.4245 70.7528 28.1313 71.341 26.6559 71.0786C13.7435 68.8192 3.70062 55.3537 3.70062 42.2381V33.5401C3.70062 18.6825 16.836 3.70275 31.6713 3.70275H67.5509C82.3862 3.70275 96.1003 18.6825 96.1003 33.5401V42.2396C96.1003 57.0987 83.1578 72.2369 68.3225 72.2369H56.9775C56.5812 72.2369 54.7983 72.0695 54.4336 72.2369L38.037 80.1521L19.8395 88.0477L22.2191 82.4688Z" fill="black" stroke="black" stroke-width="0.5"/>
<path d="M99.1474 20.498C99.9416 22.4874 99.7276 21.8253 100.151 23.973C110.854 23.973 123.824 40.7687 122.913 52.5209V61.2188C122.913 74.3344 114.029 87.1574 101.116 89.4183C99.6402 89.6762 99.7668 89.6687 99.9582 91.1558C100.067 92.0064 100.344 92.0502 100.73 92.9068C101.523 93.943 103.201 97.4768 105.359 101.774L108.301 107.951L105.745 107.027L72.3733 92.0502C71.7916 92.0502 71.0381 91.5419 70.6372 91.5419H59.0632C53.5022 91.5419 44.4027 88.5495 41.7021 84.5919L39.3993 85.8453C45.3009 90.9446 52.812 93.759 60.5928 93.759H70.0224L107.159 110.754C107.508 110.915 107.903 111 108.301 111C108.301 111 108.301 111 108.303 111C109.055 111 109.784 110.702 110.306 110.181C111.127 109.351 111.348 108.083 110.854 107.027C107.75 100.358 105.394 95.6533 103.653 92.6444L103.402 92.21L103.878 92.0502C117.108 87.6054 126 75.2153 126 61.2188V52.5209C126 36.6739 114.717 23.243 99.1474 20.498Z" fill="black"/>
<path d="M44.6773 25.4717C44.6773 24.6431 44.9811 24.0899 45.7309 23.5329C46.1809 23.119 46.7853 22.842 47.535 22.7005V28.5238C46.3353 28.1053 45.7309 27.6914 45.4311 27.4144C44.8317 26.862 44.6773 26.305 44.6773 25.4717ZM56.4071 41.4162C56.4071 42.2456 56.1074 42.9403 55.3576 43.4927C54.7532 43.9074 54.0035 44.1875 53.1002 44.4606V38.2256C54.4535 38.7826 55.2074 39.1973 55.5071 39.4735C56.2568 39.8882 56.4071 40.5829 56.4071 41.4162ZM61.9723 33.6532C60.0187 32.1291 57.161 30.8773 53.2496 30.048V22.842C55.3576 23.2567 57.3112 24.0899 59.1145 25.334C59.4143 25.4717 59.719 25.6141 60.0187 25.4717C60.3184 25.4717 60.6181 25.334 60.7684 25.057L64.2297 20.4847C64.38 20.2084 64.5294 19.9284 64.38 19.6522C64.38 19.3752 64.0795 19.099 63.9259 18.9605C60.6181 16.8802 57.0115 15.6322 53.2496 15.2175V13.6934C53.2496 13.141 52.7996 12.584 52.0458 12.584H48.5886C47.9892 12.584 47.3847 12.9987 47.3847 13.6934V15.2175C44.2273 15.4938 41.5198 16.6039 39.416 18.4043C37.0091 20.3469 35.8052 22.9805 35.8052 26.1672C35.8052 29.357 36.8588 31.7106 38.9668 33.3732C40.9204 34.9011 43.6278 36.0106 47.3847 36.84V44.3221C44.8317 43.7697 42.424 42.5218 40.0162 40.583C39.7165 40.4406 39.416 40.3067 39.1162 40.3067C38.8124 40.3067 38.5126 40.4406 38.3624 40.7214L34.451 45.0168C34.001 45.4315 34.1513 46.1263 34.6013 46.541C38.3624 49.5931 42.7237 51.3942 47.3847 52.0851V54.7186C47.3847 55.2749 47.8347 55.8281 48.5886 55.8281H52.0458C52.6502 55.8281 53.2496 55.4134 53.2496 54.7186V52.0851C56.711 51.8089 59.4143 50.6987 61.6726 48.8983C64.0795 46.9595 65.4294 44.3221 65.4294 41.1354C65.2792 37.8109 64.2297 35.3158 61.9723 33.6532Z" fill="#0795FF"/>
</svg>
