<svg width="318" height="54" viewBox="0 0 318 54" fill="none" xmlns="http://www.w3.org/2000/svg">
<path d="M229.314 26.7148C229.314 18.3252 229.314 9.93422 229.314 1.54191C229.314 0.94869 229.45 0.785046 230.067 0.789137C240.147 0.808229 250.219 0.808229 260.283 0.789137C260.879 0.789137 261.065 0.91187 261.048 1.52963C261.003 3.3011 261.007 5.07257 261.048 6.84813C261.048 7.44544 260.903 7.6009 260.291 7.59681C252.791 7.57635 245.295 7.5968 237.799 7.56817C237.12 7.56817 236.946 7.70727 236.971 8.3864C237.004 13.0585 237.004 17.7292 236.971 22.3986C236.971 22.9959 237.112 23.1514 237.729 23.1514C245.042 23.1268 252.356 23.1513 259.666 23.1227C260.27 23.1227 260.444 23.2577 260.427 23.8673C260.382 25.6633 260.39 27.4593 260.427 29.2554C260.427 29.7995 260.287 29.9263 259.744 29.9263C252.426 29.9058 245.113 29.9263 237.807 29.8936C237.116 29.8936 236.979 30.0531 236.979 30.7118C237.012 35.5366 237.012 40.3615 236.979 45.1863C236.979 45.7918 237.137 45.935 237.745 45.9309C245.527 45.9104 253.312 45.9309 261.094 45.9022C261.706 45.9022 261.868 46.0536 261.855 46.6509C261.81 48.4756 261.818 50.2961 261.855 52.1167C261.855 52.6076 261.719 52.7058 261.247 52.7058C250.808 52.6895 240.369 52.6895 229.93 52.7058C229.247 52.7058 229.343 52.3581 229.343 51.953C229.326 43.5444 229.316 35.1316 229.314 26.7148Z" fill="white"/>
<path d="M47.6032 40.3005C47.6032 43.0047 47.6032 45.6967 47.6032 48.3846C47.6129 48.5178 47.5775 48.6504 47.5026 48.7615C47.4277 48.8726 47.3174 48.9559 47.1893 48.9983C43.5171 50.8645 39.5955 52.2061 35.5419 52.983C34.0852 53.2513 32.6129 53.4289 31.1337 53.5149C29.9503 53.6197 28.7614 53.6511 27.5741 53.609C23.7745 53.47 20.0323 52.6479 16.5309 51.1829C13.6325 49.9223 10.962 48.2018 8.62523 46.0895C4.9661 42.8254 2.33025 38.593 1.02996 33.8937C0.530528 32.0576 0.213081 30.1777 0.082108 28.2807C-0.286273 23.9645 0.607774 19.9061 2.30481 15.9541C3.85367 12.5135 6.16006 9.45814 9.0557 7.01081C11.8669 4.52367 15.1832 2.65878 18.7826 1.54094C21.0772 0.827399 23.4435 0.362371 25.8398 0.154045C27.8275 -0.0135077 29.8248 -0.0422198 31.8167 0.0681283C34.4021 0.204937 36.9638 0.629 39.4533 1.3323C41.8667 2.0126 44.2336 2.8448 46.5395 3.82381C46.7274 3.87765 46.8899 3.99553 46.9983 4.15654C47.1066 4.31756 47.1538 4.5113 47.1314 4.7034C47.1065 7.21537 47.1314 9.73143 47.1314 12.3334C46.0386 11.8056 44.979 11.3188 43.936 10.791C40.9925 9.3233 37.8629 8.25277 34.6312 7.60812C32.2605 7.10904 29.8294 6.94921 27.4126 7.13354C22.9424 7.50584 18.8323 8.86001 15.3182 11.7238C12.4208 14.0967 10.2685 16.9277 9.1095 20.4666C8.5881 22.1441 8.28488 23.8805 8.20718 25.6337C7.93845 29.2368 8.70461 32.8417 10.4175 36.0334C11.8649 38.6542 13.895 40.9164 16.3548 42.6497C18.8146 44.3831 21.6401 45.5423 24.6187 46.0404C26.7215 46.3911 28.8617 46.4682 30.9847 46.2695C34.1298 45.9733 37.2158 45.2335 40.1487 44.0725C42.5568 43.1188 44.865 41.9349 47.0403 40.5378C47.2092 40.4208 47.4009 40.34 47.6032 40.3005Z" fill="white"/>
<path d="M194.545 0.800293C201.966 0.800293 209.383 0.800293 216.805 0.800293C217.446 0.800293 217.633 0.9353 217.612 1.58579C217.558 3.40635 217.566 5.23101 217.612 7.05157C217.612 7.62842 217.475 7.76343 216.892 7.76343C210.981 7.73888 205.075 7.76343 199.164 7.7307C198.514 7.7307 198.365 7.88207 198.365 8.52029C198.387 22.9757 198.397 37.4311 198.394 51.8865C198.394 52.5738 198.241 52.7783 197.521 52.762C195.517 52.7047 193.514 52.7129 191.511 52.762C190.857 52.762 190.708 52.6147 190.708 51.9724C190.727 37.517 190.738 23.0684 190.741 8.62666C190.741 7.94343 190.588 7.75115 189.867 7.75525C183.986 7.78797 178.1 7.75525 172.218 7.78798C171.643 7.78798 171.477 7.66524 171.49 7.0802C171.535 5.23509 171.531 3.39817 171.49 1.5367C171.49 0.959849 171.631 0.824837 172.214 0.828928C179.654 0.820745 187.097 0.811203 194.545 0.800293Z" fill="white"/>
<path d="M317.245 52.4849L311.93 44.589C309.588 41.1074 307.278 37.6054 304.894 34.1483C303.313 31.8573 301.86 29.4394 299.323 27.983C299.431 27.8615 299.576 27.7782 299.737 27.7457C301.806 27.0502 303.768 26.1092 305.362 24.6201C307.684 22.4354 308.64 19.6248 308.822 16.5482C308.945 14.8755 308.851 13.1942 308.545 11.5448C308.27 9.97496 307.682 8.47475 306.816 7.13123C305.95 5.7877 304.823 4.62764 303.499 3.71838C300.552 1.67281 297.175 0.920039 293.685 0.85458C288.275 0.723664 282.857 0.825944 277.439 0.805489C276.93 0.805489 276.802 0.936407 276.802 1.43962C276.802 18.3224 276.802 35.2093 276.802 52.1003C276.802 52.5913 276.918 52.7426 277.435 52.7344C279.505 52.7058 281.603 52.6935 283.685 52.7344C284.335 52.7344 284.488 52.5872 284.484 51.9448C284.459 44.7853 284.484 37.6258 284.484 30.4663C284.484 30.2863 284.484 30.1063 284.484 29.9263C284.484 29.7463 284.571 29.6113 284.803 29.6154C286.492 29.6399 288.176 29.5458 289.848 30.0245C292.493 30.7732 294.248 32.6305 295.842 34.6311C298.259 37.6667 300.262 40.9969 302.44 44.2003C304.236 46.8432 305.987 49.5188 307.725 52.1985C307.806 52.3656 307.934 52.5056 308.095 52.601C308.255 52.6963 308.44 52.7427 308.627 52.7344C310.217 52.714 311.802 52.7344 313.392 52.7344H317.266C317.245 52.579 317.266 52.5176 317.245 52.4849ZM295.308 22.6645C293.95 23.0491 292.539 23.0491 291.14 23.1718C289.116 23.3518 287.1 23.1964 285.084 23.2986C284.571 23.3232 284.439 23.1718 284.443 22.6686C284.472 20.2139 284.443 17.7592 284.443 15.28C284.443 12.8007 284.443 10.3706 284.443 7.89136C284.443 7.39224 284.567 7.25314 285.08 7.25723C287.477 7.28587 289.877 7.16314 292.261 7.30223C294.559 7.43724 296.843 7.77272 298.706 9.34781C299.677 10.1745 300.355 11.2872 300.639 12.5225C301.235 14.6103 301.089 16.837 300.225 18.8311C299.286 20.9789 297.481 22.059 295.316 22.6645H295.308Z" fill="white"/>
<path d="M162.762 12.044C162.156 8.83009 160.322 5.96956 157.642 4.05396C154.488 1.78337 150.821 0.91605 147.009 0.834227C141.309 0.711493 135.605 0.834227 129.902 0.789224C129.281 0.789224 129.148 0.952869 129.148 1.54199C129.168 9.93703 129.168 18.3293 129.148 26.7189C129.129 35.1085 129.129 43.5281 129.148 51.9777C129.148 52.5873 129.31 52.7345 129.914 52.7223C131.864 52.6814 133.817 52.6609 135.771 52.7223C136.541 52.7468 136.686 52.53 136.682 51.8058C136.649 44.9 136.682 37.9982 136.644 31.0924C136.644 30.4664 136.831 30.3232 137.418 30.356C138.226 30.4051 139.033 30.3928 139.84 30.356C143.565 30.2414 147.336 30.6751 151.053 29.91C154.48 29.2023 157.481 27.8113 159.844 25.1684C161.885 22.8896 162.799 20.1976 163.039 17.2684C163.2 15.5228 163.107 13.7634 162.762 12.044ZM154.678 18.7003C153.958 21.155 152.149 22.4641 149.769 23.1228C148.764 23.3814 147.735 23.5457 146.698 23.6137C143.59 23.8674 140.49 23.6751 137.369 23.7651C136.785 23.7651 136.64 23.6342 136.649 23.0574C136.682 20.5699 136.649 18.0784 136.649 15.591C136.649 13.1036 136.649 10.6816 136.649 8.22693C136.649 7.74008 136.752 7.58053 137.278 7.58462C140.034 7.61326 142.795 7.53553 145.556 7.62144C147.601 7.6869 149.666 7.90373 151.524 8.84879C153.503 9.85521 154.558 11.5776 154.939 13.7091C155.244 15.3703 155.155 17.0789 154.678 18.7003Z" fill="white"/>
<path d="M115.124 26.2313C115.08 24.592 114.915 22.958 114.631 21.3424C114.095 18.659 113.105 16.0839 111.705 13.7247C110.091 10.9959 108.01 8.56502 105.554 6.54061C104.1 5.29601 102.51 4.21478 100.815 3.31678C96.499 1.05461 91.6671 -0.0724612 86.7833 0.0438649C85.5649 -0.0522037 84.3389 0.00968736 83.1368 0.227965C80.5754 0.593779 78.0717 1.28119 75.6864 2.27354C72.9649 3.41592 70.4488 4.98685 68.236 6.92518C65.3056 9.4421 62.9628 12.5576 61.3692 16.0566C59.2731 20.5257 58.5672 25.5094 59.341 30.3756C59.6449 32.8705 60.3345 35.3045 61.3857 37.5924C63.0311 41.1738 65.4598 44.3498 68.4967 46.8916C70.7918 48.8149 73.375 50.3745 76.1541 51.5146C79.4241 52.8218 82.9053 53.5369 86.4315 53.6256C87.3793 53.6666 88.3355 53.5643 89.2833 53.5193C91.3409 53.4234 93.3795 53.0842 95.3554 52.5088C101.233 50.8871 106.395 47.3743 110.024 42.5264C113.615 37.859 115.421 32.0874 115.124 26.2313ZM86.299 46.3802C81.1241 46.2115 76.2223 44.0443 72.6457 40.3439C69.069 36.6434 67.1024 31.7046 67.1681 26.5872C67.1681 15.9175 76.2451 6.69198 88.1906 7.12564C97.9382 7.48157 107.16 16.1671 106.974 26.8C107.214 37.1669 98.1824 46.8589 86.299 46.3802Z" fill="white"/>
<path d="M104.391 24.9594C103.865 23.8712 103.596 22.6806 103.095 21.576C102.329 19.868 101.347 18.2624 100.173 16.7976C98.592 14.847 96.5492 13.3113 94.2253 12.3259C92.6717 11.5896 90.9803 11.1801 89.2583 11.1231C89.2045 11.1231 89.1466 11.1231 89.1011 11.1231C88.0208 10.6404 88.2732 11.4259 88.2194 11.9905C88.1822 12.3996 88.3726 12.5714 88.741 12.6655C90.1496 13.0337 91.519 13.5351 92.8304 14.1629C96.9695 16.1102 99.9579 18.9986 100.91 23.6052C101.031 24.1179 101.011 24.6533 100.852 25.1558C100.393 24.3375 99.9621 23.4702 99.4695 22.6561C98.3751 20.812 96.9117 19.2079 95.1688 17.9418C93.4259 16.6756 91.4402 15.774 89.3329 15.292C89.0431 15.2184 88.712 15.3779 88.4347 15.1488C88.4015 15.1243 88.2277 15.1979 88.1822 15.2675C87.9462 15.6152 88.1201 16.0121 88.0704 16.3844C88.0083 16.8794 88.3105 16.9039 88.7203 17.0021C90.7982 17.4755 92.7077 18.4963 94.246 19.9559C95.6202 21.2815 96.775 22.8197 96.9902 24.8326C96.9902 25.0003 97.1475 25.1681 96.9033 25.2662C96.597 25.3849 96.6425 25.0658 96.5763 24.9553C95.4847 23.0079 93.8244 21.431 91.8122 20.4305C90.7388 19.9397 89.5978 19.6089 88.4264 19.4486C88.1905 19.4118 87.9256 19.3504 87.9049 19.7841C87.8262 21.3797 87.6979 22.9711 87.6068 24.5626C87.6449 24.8625 87.7819 25.1417 87.9966 25.3569C88.2113 25.5721 88.4919 25.7114 88.7948 25.7531C91.8701 25.7531 94.9496 25.884 98.0126 25.7163C100.297 25.5894 102.566 25.6958 104.85 25.5976C105.264 25.5976 105.446 25.6754 105.422 26.1336C105.206 30.2656 104.304 34.2136 101.742 37.5888C99.2833 40.8126 95.9223 42.7109 91.8991 43.4964C90.7833 43.7426 89.6373 43.828 88.4968 43.75C88.5574 43.6358 88.6445 43.5373 88.7509 43.4626C88.8574 43.388 88.9802 43.3393 89.1093 43.3205C91.7011 42.5734 94.1402 41.3825 96.3155 39.8021C99.315 37.61 101.435 34.4411 102.301 30.8548C102.492 29.8934 102.617 28.9201 102.673 27.9419C102.684 27.8987 102.683 27.8535 102.67 27.811C102.657 27.7685 102.632 27.7303 102.599 27.7005C102.239 27.3691 101.175 27.6718 101.042 28.1628C100.542 30.0098 99.8045 31.7861 98.8487 33.4485C96.7791 37.0938 93.7534 39.4543 89.5439 40.2358C89.1695 40.2705 88.7926 40.2705 88.4181 40.2358C88.3726 39.8512 88.6706 39.8553 88.8113 39.7939C91.1125 38.8129 93.1671 37.3435 94.8296 35.49C96.7582 33.3339 98.0359 30.6861 98.5175 27.8478C98.5348 27.8004 98.5352 27.7486 98.5187 27.701C98.5021 27.6534 98.4696 27.6128 98.4265 27.5859C97.967 27.3077 97.4662 27.4755 96.9861 27.4755C96.6467 27.4755 96.717 27.8232 96.6508 28.0646C96.1402 30.1318 95.0947 32.0322 93.6168 33.5795C92.2923 34.8968 90.7567 35.9564 88.8072 36.2714C88.5506 36.3164 88.3395 36.4064 88.2525 36.1446C88.1656 35.8828 88.505 35.8705 88.6665 35.7887C91.0863 34.4621 92.9072 32.2779 93.7617 29.6765C93.9811 29.0219 93.9273 28.3428 94.1756 27.7046C94.2749 27.4509 94.1756 27.2954 93.8238 27.2954C92.7435 27.2954 91.6673 27.0745 90.5787 27.1441C90.2996 27.161 90.0196 27.1305 89.7509 27.0541C89.4988 26.961 89.2267 26.9335 88.9608 26.9744C88.6949 27.0152 88.444 27.123 88.2324 27.2874C88.0208 27.4517 87.8556 27.6671 87.7525 27.9129C87.6495 28.1586 87.6121 28.4264 87.6441 28.6905C87.9421 33.7063 87.7186 38.7261 87.789 43.746C87.789 44.8056 87.789 44.8301 86.75 44.7197C84.6379 44.5587 82.5516 44.1564 80.5331 43.5209C74.788 41.5449 71.2449 37.6051 69.7714 31.808C69.5107 30.7811 69.552 29.7174 69.3161 28.6946C69.2623 28.4696 69.2706 28.171 69.5396 28.1014C69.9328 27.9991 69.8087 28.4246 69.8542 28.5637C70.5418 30.7969 71.5466 32.9223 72.8385 34.8763C75.0082 38.1724 78.3413 40.5524 82.1887 41.5531C83.1632 41.8704 84.1914 41.9942 85.2144 41.9172C85.4462 41.8845 85.8808 42.1504 85.8684 41.6554C85.856 41.1604 86.1706 40.5753 85.4255 40.3953C84.4256 40.1492 83.4437 39.8362 82.4868 39.4584C78.9395 38.0674 75.9966 35.94 74.1837 32.5485C73.5196 31.2106 73.0993 29.7676 72.942 28.2855C72.942 28.1587 72.8592 27.9705 73.091 27.9132C73.3228 27.8559 73.3973 28.0155 73.4635 28.1914C74.2293 30.0982 75.3655 31.8383 76.8079 33.3135C78.3514 34.9224 80.2315 36.1789 82.3171 36.9956C83.3678 37.4186 84.4675 37.7113 85.5911 37.867C85.7815 37.8956 85.8643 37.9365 85.8974 37.7238C85.9305 37.511 86.0257 37.1919 86.0505 36.9056C86.0961 36.4514 86.0505 36.1855 85.4214 36.0301C83.1332 35.5268 81.0482 34.3619 79.4321 32.6835C78.2752 31.4927 77.4422 30.0318 77.0107 28.4369C76.9528 28.2241 76.9155 27.9173 77.1804 27.8314C77.3832 27.7659 77.5157 28.0196 77.5943 28.1873C78.3038 29.4812 79.2814 30.6127 80.4631 31.508C81.6449 32.4032 83.0044 33.0422 84.4528 33.3831C84.8668 33.4854 85.3014 33.3831 85.7318 33.5754C86.0547 33.7308 86.2161 33.4035 86.1954 33.0721C86.1209 31.7466 86.4603 30.4334 86.3568 29.1037C86.3374 28.8752 86.3514 28.6451 86.3982 28.4205C86.4439 28.2679 86.452 28.1068 86.4219 27.9505C86.3918 27.7941 86.3243 27.6472 86.2251 27.5219C86.1259 27.3966 85.9978 27.2966 85.8515 27.2301C85.7052 27.1637 85.545 27.1328 85.3841 27.14C83.6499 27.0868 81.928 27.3323 80.1896 27.3077C76.5182 27.2586 72.8468 27.2832 69.1754 27.3077C68.6828 27.3077 68.4552 27.2095 68.538 26.6859C68.8236 24.8612 68.9519 23.0038 69.4569 21.2201C70.0741 18.9906 71.1335 16.9046 72.5736 15.0834C74.846 12.2646 77.8178 10.5831 81.303 9.69533C82.4941 9.44985 83.6975 9.26686 84.9081 9.14711C85.0654 9.12257 85.3469 8.99574 85.409 9.32304C85.4711 9.65033 85.1689 9.58078 84.9951 9.63396C82.8978 10.262 80.8906 11.1529 79.0223 12.285C76.0311 14.0528 73.7057 16.7376 72.3998 19.9314C71.739 21.501 71.3783 23.178 71.336 24.8776C71.336 25.1067 71.1622 25.5403 71.6754 25.4463C72.0893 25.3726 72.6895 25.794 72.8923 25.0371C73.5074 22.6784 74.507 20.4343 75.8518 18.3931C77.7297 15.5804 80.635 13.5941 83.9603 12.8496C84.3245 12.7555 84.7219 12.8905 85.0944 12.6941C85.202 12.6369 85.4628 12.5755 85.5373 12.8332C85.6118 13.091 85.4338 13.1278 85.26 13.1974C84.3793 13.5612 83.5353 14.0064 82.7392 14.527C79.1465 16.8057 76.7251 19.9273 75.7028 24.0471C75.7028 24.1453 75.6779 24.2475 75.649 24.3416C75.3758 25.3399 75.5703 25.5935 76.6051 25.6181C76.9859 25.6181 77.1721 25.5526 77.2963 25.1108C77.6393 23.7377 78.1979 22.4262 78.952 21.2242C80.3394 18.9949 82.5322 17.3702 85.0861 16.6789C85.295 16.6521 85.5064 16.6521 85.7153 16.6789C85.7153 17.1412 85.3593 17.223 85.0903 17.3867C83.784 18.1361 82.6515 19.1482 81.766 20.3576C80.8804 21.5669 80.2616 22.9465 79.9495 24.4071C79.9432 24.4833 79.9432 24.56 79.9495 24.6362C79.8957 25.7449 79.904 25.6426 81.0132 25.7694C82.4702 25.9372 83.9437 25.749 85.3883 26.0395C85.5911 26.0804 86.3527 25.2212 86.3527 24.9144C86.3527 22.0138 86.4893 19.105 86.3154 16.2125C86.1664 13.7292 86.3154 11.2541 86.1913 8.77891C86.1664 8.2757 86.4603 8.32479 86.7749 8.34116C89.1855 8.42989 91.5701 8.86681 93.8528 9.63805C96.3685 10.4658 98.6312 11.9099 100.43 13.8356C102.429 16.0225 103.778 18.7123 104.329 21.6088C104.534 22.4667 104.637 23.3455 104.635 24.2271C104.623 24.4971 104.71 24.7753 104.391 24.9594Z" fill="white"/>
</svg>
