<svg viewBox="0 0 75 77" fill="none" xmlns="http://www.w3.org/2000/svg">
<ellipse cx="35.5" cy="38.5" rx="35.5" ry="36.5" fill="#C4C4C4" fill-opacity="0.36"/>
<ellipse cx="37.5" cy="38.5" rx="37.5" ry="38.5" fill="#020DD9"/>
<ellipse cx="37.5" cy="38.5" rx="35.5" ry="36.5" fill="white"/>
<g filter="url(#filter0_b_1960_382)">
<path d="M46.3945 46.9883V49H28.6016V47.1836L37.918 36.6172C39.0768 35.3021 40.0013 34.1497 40.6914 33.1602C41.3815 32.1576 41.8763 31.2461 42.1758 30.4258C42.4883 29.5924 42.6445 28.7852 42.6445 28.0039C42.6445 26.8581 42.4167 25.849 41.9609 24.9766C41.5182 24.1042 40.8542 23.4206 39.9688 22.9258C39.0833 22.431 37.9896 22.1836 36.6875 22.1836C35.3854 22.1836 34.2526 22.4635 33.2891 23.0234C32.3255 23.5833 31.5833 24.3646 31.0625 25.3672C30.5547 26.3568 30.3008 27.4831 30.3008 28.7461H27.9766C27.9766 27.1836 28.3216 25.7513 29.0117 24.4492C29.7148 23.1471 30.7174 22.112 32.0195 21.3438C33.3216 20.5625 34.8776 20.1719 36.6875 20.1719C38.4062 20.1719 39.8841 20.4779 41.1211 21.0898C42.3581 21.6888 43.3086 22.5547 43.9727 23.6875C44.6497 24.8203 44.9883 26.1875 44.9883 27.7891C44.9883 28.6484 44.832 29.5143 44.5195 30.3867C44.2201 31.2591 43.8034 32.1315 43.2695 33.0039C42.7487 33.8633 42.1497 34.7161 41.4727 35.5625C40.8086 36.4089 40.112 37.2422 39.3828 38.0625L31.4531 46.9883H46.3945Z" fill="#4D4D4D"/>
</g>
<defs>
<filter id="filter0_b_1960_382" x="23.9766" y="16.1719" width="26.418" height="36.8281" filterUnits="userSpaceOnUse" color-interpolation-filters="sRGB">
<feFlood flood-opacity="0" result="BackgroundImageFix"/>
<feGaussianBlur in="BackgroundImageFix" stdDeviation="2"/>
<feComposite in2="SourceAlpha" operator="in" result="effect1_backgroundBlur_1960_382"/>
<feBlend mode="normal" in="SourceGraphic" in2="effect1_backgroundBlur_1960_382" result="shape"/>
</filter>
</defs>
</svg>
