<svg viewBox="0 0 101 102" fill="none" xmlns="http://www.w3.org/2000/svg">
<path d="M50.4996 102C37.0172 102 24.3218 96.7003 14.795 87.0585C5.24778 77.4374 0 64.6163 0 50.9996C0 37.3837 5.24778 24.5626 14.795 14.9415C24.3218 5.29974 37.0172 0 50.4996 0C63.9828 0 76.6782 5.29974 86.205 14.9415C95.7522 24.5823 101 37.3837 101 50.9996C101 64.6163 95.7522 77.4374 86.205 87.0585C76.6782 96.7003 63.9828 102 50.4996 102ZM50.4996 3.05757C37.8246 3.05757 25.8959 8.0512 16.9345 17.1022C7.97226 26.1523 3.0276 38.1991 3.0276 50.9996C3.0276 63.8009 7.97226 75.8477 16.9345 84.8978C25.8959 93.9479 37.8246 98.9424 50.4996 98.9424C63.1754 98.9424 75.1041 93.9479 84.0655 84.8978C93.0269 75.8477 97.9724 63.8009 97.9724 50.9996C97.9724 38.1991 93.0269 26.1523 84.0655 17.1022C75.1041 8.0512 63.1754 3.05757 50.4996 3.05757Z" fill="black"/>
<path d="M29.417 61.4039L36.669 58.0848L34.6335 60.2331C33.9818 60.9201 33.6151 61.8525 33.6151 62.8173V77.1249C33.6151 80.4017 37.3716 81.99 39.5355 79.7091L46.8156 72.0355L62.6792 80.3961C64.7335 81.478 67.2173 80.1972 67.6415 77.778L76.6934 25.3182C77.1698 22.497 74.5322 20.2147 72.0122 21.2571L13.2 45.5206C10.565 46.6026 10.2131 50.4055 12.6005 52.0094L26.1704 61.1359C27.1406 61.7876 28.3665 61.8905 29.417 61.4039ZM68.7576 30.4626L61.6475 71.68L47.6801 64.3224C46.3298 63.6115 44.7212 63.9091 43.6801 65.0108L40.5526 68.3073V64.3436L54.461 49.6833C57.1576 46.841 54.1238 42.1522 50.6269 43.7461L28.3477 53.9348L22.086 49.7228L68.7576 30.4626Z" fill="#0795FF"/>
</svg>
