<svg viewBox="0 0 157 148" fill="none" xmlns="http://www.w3.org/2000/svg">
<path d="M13.7987 87.123H78.4668V148.004H13.7987V87.123Z" fill="#DFE8F4"/>
<path d="M13.7987 98.6224V111.905L33.621 130.538C35.0911 131.92 36.6275 133.233 38.2342 134.472C39.8408 135.711 41.5082 136.874 43.2381 137.96C44.9662 139.046 46.7454 140.05 48.5797 140.97C50.4121 141.89 52.29 142.724 54.2096 143.471C56.1311 144.22 58.0849 144.877 60.0747 145.444C62.0645 146.011 64.0771 146.483 66.1162 146.865C68.1554 147.245 70.2097 147.53 72.2773 147.721C74.3468 147.911 76.42 148.006 78.499 148.004V87.123H48.7656L13.7987 98.6224Z" fill="#CCD8E5"/>
<path d="M78.4678 87.123H143.134V148.004H78.4678V87.123Z" fill="#156CDD"/>
<path d="M154.191 111.905H98.125C97.5939 111.903 97.0703 111.839 96.5563 111.712C96.0422 111.584 95.5528 111.398 95.09 111.152C94.6272 110.908 94.2023 110.612 93.8191 110.266C93.4359 109.92 93.1059 109.533 92.827 109.107L78.5 87.123H143.2L156.579 108.032C156.636 108.13 156.687 108.232 156.731 108.335C156.774 108.44 156.81 108.545 156.839 108.654C156.869 108.763 156.89 108.874 156.903 108.986C156.918 109.096 156.924 109.209 156.922 109.321C156.922 109.433 156.913 109.544 156.896 109.655C156.879 109.767 156.856 109.876 156.824 109.984C156.791 110.093 156.753 110.198 156.708 110.302C156.66 110.405 156.607 110.505 156.549 110.603C156.488 110.699 156.423 110.792 156.349 110.881C156.277 110.971 156.2 111.054 156.114 111.135C156.031 111.215 155.942 111.288 155.847 111.357C155.754 111.425 155.655 111.489 155.551 111.545C155.448 111.602 155.342 111.653 155.232 111.696C155.122 111.741 155.01 111.778 154.896 111.809C154.781 111.839 154.665 111.862 154.545 111.878C154.428 111.894 154.31 111.903 154.191 111.905Z" fill="#0795FF"/>
<path d="M78.5007 87.1225H13.8004L0.421817 66.367C0.290933 66.1673 0.188503 65.9569 0.116421 65.7322C0.0462374 65.5075 0.00640318 65.2775 0.000712453 65.0439C-0.00497827 64.8085 0.0234749 64.5785 0.0841747 64.3503C0.142978 64.1238 0.234027 63.9081 0.357324 63.703C0.478723 63.4997 0.626679 63.3125 0.803088 63.1467C0.9776 62.979 1.17298 62.8382 1.38922 62.7205C1.60546 62.6028 1.83309 62.5154 2.07399 62.4548C2.31489 62.396 2.56149 62.3674 2.80997 62.3692H60.9357C61.4213 62.3746 61.8766 62.4887 62.3015 62.7116C62.7264 62.9363 63.0659 63.2412 63.3239 63.6299L78.5007 87.1225Z" fill="#CCD8E5"/>
<path d="M2.81009 111.905H60.9358C61.4214 111.901 61.8767 111.787 62.3016 111.562C62.7265 111.34 63.066 111.033 63.324 110.644L78.5008 87.123H13.8005L0.421932 108.032C0.365026 108.13 0.31381 108.232 0.270183 108.335C0.226555 108.44 0.190514 108.545 0.162061 108.654C0.131711 108.763 0.110845 108.874 0.0975678 108.986C0.0823928 109.096 0.0767023 109.209 0.0785991 109.321C0.0785991 109.433 0.0880835 109.544 0.105155 109.655C0.12033 109.767 0.14499 109.876 0.177236 109.984C0.207586 110.093 0.24742 110.198 0.292945 110.302C0.33847 110.405 0.391582 110.505 0.452282 110.603C0.511085 110.699 0.577475 110.792 0.651453 110.881C0.723534 110.971 0.801306 111.054 0.884768 111.135C0.970128 111.215 1.05928 111.288 1.15412 111.357C1.24707 111.425 1.34571 111.489 1.44814 111.545C1.55247 111.602 1.65869 111.653 1.76871 111.696C1.87683 111.741 1.99064 111.778 2.10445 111.809C2.22016 111.839 2.33587 111.862 2.45348 111.878C2.57298 111.894 2.69059 111.903 2.81009 111.905Z" fill="#DFE8F4"/>
<path d="M78.5 87.1225H143.2L156.579 66.367C156.71 66.1673 156.812 65.9569 156.882 65.7322C156.954 65.5075 156.992 65.2775 156.998 65.0439C157.004 64.8085 156.977 64.5785 156.917 64.3503C156.858 64.1238 156.765 63.9081 156.643 63.703C156.522 63.4997 156.372 63.3125 156.198 63.1467C156.023 62.979 155.828 62.8382 155.611 62.7205C155.395 62.6028 155.168 62.5154 154.927 62.4548C154.684 62.396 154.439 62.3674 154.191 62.3692H96.065C95.5794 62.3746 95.1242 62.4887 94.6993 62.7116C94.2744 62.9363 93.9348 63.2412 93.6768 63.6299L78.5 87.1225Z" fill="#156CDD"/>
<path d="M107.939 28.0852C107.939 28.991 107.892 29.895 107.797 30.7973C107.702 31.6996 107.562 32.5947 107.372 33.4845C107.184 34.3725 106.951 35.2515 106.67 36.1181C106.391 36.9865 106.067 37.8388 105.697 38.6751C105.329 39.5132 104.917 40.3316 104.462 41.1305C104.007 41.9293 103.512 42.7068 102.977 43.4592C102.442 44.2135 101.867 44.941 101.256 45.6418C100.644 46.3425 99.9968 47.013 99.3158 47.6531C98.6348 48.2933 97.9197 48.9013 97.1762 49.4773C96.4307 50.0514 95.6568 50.5917 94.8544 51.0946C94.0539 51.5992 93.2269 52.0646 92.3771 52.4907C91.5273 52.9187 90.6566 53.3056 89.7651 53.6516C88.8736 53.9993 87.9669 54.3042 87.045 54.5663C86.1231 54.8302 85.1879 55.0495 84.2433 55.226C83.2968 55.4044 82.3445 55.5363 81.3847 55.6255C80.4249 55.7146 79.4632 55.7592 78.4996 55.7592C77.536 55.7592 76.5743 55.7146 75.6144 55.6255C74.6546 55.5363 73.7024 55.4044 72.7559 55.226C71.8112 55.0495 70.8761 54.8302 69.9542 54.5663C69.0304 54.3042 68.1237 53.9993 67.2341 53.6516C66.3426 53.3056 65.4719 52.9187 64.6221 52.4907C63.7723 52.0646 62.9453 51.5992 62.1448 51.0946C61.3424 50.5917 60.5685 50.0514 59.823 49.4773C59.0775 48.9013 58.3643 48.2933 57.6833 47.6531C57.0005 47.013 56.3555 46.3425 55.7428 45.6418C55.1321 44.941 54.5573 44.2135 54.0224 43.4592C53.4856 42.7068 52.9905 41.9293 52.5371 41.1305C52.0819 40.3316 51.6703 39.5132 51.3023 38.6751C50.9324 37.8388 50.608 36.9865 50.3292 36.1181C50.0484 35.2515 49.8151 34.3725 49.6254 33.4845C49.4377 32.5947 49.2973 31.6996 49.2024 30.7973C49.1076 29.895 49.0602 28.991 49.0602 28.0852C49.0602 27.1793 49.1076 26.2753 49.2024 25.373C49.2973 24.4708 49.4377 23.5757 49.6254 22.6859C49.8151 21.7979 50.0484 20.9188 50.3292 20.0522C50.608 19.1856 50.9324 18.3333 51.3023 17.4952C51.6703 16.6571 52.0819 15.8387 52.5371 15.0399C52.9905 14.241 53.4856 13.4636 54.0224 12.7111C54.5573 11.9568 55.1321 11.2293 55.7428 10.5286C56.3555 9.82958 57.0005 9.15734 57.6833 8.5172C58.3643 7.87706 59.0775 7.26902 59.823 6.69307C60.5685 6.1189 61.3424 5.57862 62.1448 5.07578C62.9453 4.57294 63.7723 4.10754 64.6221 3.67959C65.4719 3.25164 66.3426 2.86471 67.2341 2.51878C68.1237 2.17107 69.0304 1.86616 69.9542 1.60404C70.8761 1.34014 71.8112 1.12081 72.7559 0.944286C73.7024 0.765974 74.6546 0.634023 75.6144 0.544867C76.5743 0.455711 77.536 0.411133 78.4996 0.411133C79.4632 0.411133 80.4249 0.455711 81.3847 0.544867C82.3445 0.634023 83.2968 0.765974 84.2433 0.944286C85.1879 1.12081 86.1231 1.34014 87.045 1.60404C87.9669 1.86616 88.8736 2.17107 89.7651 2.51878C90.6566 2.86471 91.5273 3.25164 92.3771 3.67959C93.2269 4.10754 94.0539 4.57294 94.8544 5.07578C95.6568 5.57862 96.4307 6.1189 97.1762 6.69307C97.9197 7.26902 98.6348 7.87706 99.3158 8.5172C99.9968 9.15734 100.644 9.82958 101.256 10.5286C101.867 11.2293 102.442 11.9568 102.977 12.7111C103.512 13.4636 104.007 14.241 104.462 15.0399C104.917 15.8387 105.329 16.6571 105.697 17.4952C106.067 18.3333 106.391 19.1856 106.67 20.0522C106.951 20.9188 107.184 21.7979 107.372 22.6859C107.562 23.5757 107.702 24.4708 107.797 25.373C107.892 26.2753 107.939 27.1793 107.939 28.0852Z" fill="#0795FF"/>
<path d="M88.3682 23.4464C88.3602 23.3495 88.3499 23.2525 88.3375 23.1558C88.325 23.0594 88.31 22.9631 88.2931 22.8671C88.2759 22.7711 88.2564 22.6758 88.2348 22.5807C88.2132 22.4857 88.1892 22.3913 88.1629 22.2974C88.1369 22.2034 88.1084 22.1102 88.0779 22.0175C88.0474 21.9249 88.0145 21.8331 87.9795 21.742C87.9445 21.6511 87.9074 21.5609 87.8682 21.4714C87.8289 21.3821 87.7876 21.2937 87.7441 21.2063C87.7007 21.1189 87.6551 21.0324 87.6074 20.9471C87.56 20.8617 87.5104 20.7775 87.4588 20.6945C87.4071 20.6115 87.3535 20.5299 87.2981 20.4492C87.2427 20.3687 87.1854 20.2896 87.1262 20.2117C87.0667 20.1338 87.0057 20.0573 86.943 19.9824C86.88 19.9072 86.8154 19.8337 86.7489 19.7616C86.6825 19.6897 86.6144 19.6192 86.5448 19.5504C86.4751 19.4815 86.4037 19.4142 86.3306 19.3486C86.2578 19.283 86.1833 19.2192 86.1072 19.1571C86.0314 19.0949 85.9539 19.0346 85.875 18.976C85.7963 18.9175 85.7159 18.8609 85.6344 18.806C85.5529 18.7513 85.47 18.6984 85.3859 18.6474C85.3021 18.5964 85.2168 18.5474 85.1304 18.5004C85.0439 18.4533 84.9566 18.4083 84.868 18.3654C84.7795 18.3225 84.69 18.2817 84.5993 18.2427C84.5089 18.204 84.4175 18.1674 84.3252 18.1328C84.2331 18.0982 84.1401 18.0658 84.0464 18.0354C83.9524 18.0053 83.858 17.9772 83.7629 17.9512C83.6678 17.9255 83.5722 17.9018 83.4759 17.8803C83.3798 17.8589 83.283 17.8397 83.1858 17.8228C83.0888 17.8058 82.9913 17.7912 82.8934 17.7787C82.7954 17.7664 82.6975 17.7562 82.599 17.7483C82.5009 17.7404 82.4022 17.7349 82.3038 17.7316C82.2052 17.7281 82.1065 17.7272 82.0079 17.7284H81.4347C81.4037 17.7314 81.3727 17.7328 81.3415 17.7328C81.3103 17.7326 81.2792 17.7307 81.2482 17.7275C81.2172 17.7242 81.1865 17.7193 81.1559 17.7128C81.1256 17.7066 81.0953 17.6985 81.0657 17.6892C81.0361 17.6797 81.007 17.6688 80.9784 17.6563C80.9499 17.644 80.9222 17.6301 80.895 17.6148C80.868 17.5997 80.8417 17.583 80.8163 17.5651C80.7909 17.5473 80.7665 17.5283 80.7432 17.5078C80.7198 17.4874 80.6974 17.4659 80.6763 17.4434C80.6552 17.4207 80.6352 17.3972 80.6164 17.3724C80.5979 17.3478 80.5805 17.3223 80.5643 17.2961C80.5483 17.2697 80.5335 17.2426 80.5203 17.2147C80.5072 17.1867 80.4954 17.1584 80.4851 17.1292C80.4748 17.1002 80.4661 17.0707 80.4588 17.0408C80.4515 17.0109 80.4459 16.9805 80.4419 16.9501C80.4377 16.9195 80.4353 16.8889 80.4344 16.8581C80.4344 16.801 80.4287 16.7445 80.4175 16.6883C80.406 16.6322 80.3893 16.578 80.3672 16.5251C80.3451 16.4722 80.3179 16.4221 80.2857 16.3746C80.2535 16.3271 80.2171 16.2832 80.176 16.2426C80.1351 16.2023 80.0907 16.1664 80.0426 16.1346C79.9944 16.1028 79.9435 16.0759 79.8902 16.0541C79.8366 16.0323 79.7814 16.0156 79.7248 16.0045C79.668 15.9934 79.6106 15.9878 79.5529 15.9878H78.6711C78.6133 15.9878 78.556 15.9934 78.4992 16.0045C78.4426 16.0156 78.3874 16.0323 78.3338 16.0541C78.2803 16.0759 78.2295 16.1028 78.1814 16.1346C78.1332 16.1664 78.0888 16.2023 78.048 16.2426C78.0069 16.2832 77.9705 16.3271 77.9383 16.3746C77.9061 16.4221 77.8789 16.4722 77.8568 16.5251C77.8347 16.578 77.8178 16.6322 77.8065 16.6883C77.7952 16.7445 77.7896 16.801 77.7896 16.8581C77.7896 16.9154 77.784 16.9719 77.7727 17.0278C77.7614 17.0839 77.7447 17.1384 77.7227 17.1913C77.7003 17.244 77.6733 17.294 77.6412 17.3416C77.609 17.3891 77.5723 17.4332 77.5315 17.4735C77.4906 17.5139 77.446 17.5501 77.3978 17.5818C77.3497 17.6136 77.2989 17.6403 77.2454 17.6623C77.1921 17.6841 77.1369 17.7006 77.08 17.7117C77.0234 17.7228 76.9661 17.7284 76.9081 17.7284H76.0266C75.9688 17.7284 75.9115 17.7228 75.8546 17.7117C75.7978 17.7006 75.7426 17.6841 75.6893 17.6623C75.6357 17.6403 75.585 17.6136 75.5368 17.5818C75.4887 17.5501 75.4441 17.5139 75.4032 17.4735C75.3623 17.4332 75.3257 17.3891 75.2935 17.3416C75.2616 17.294 75.2343 17.244 75.2122 17.1913C75.1899 17.1384 75.1733 17.0839 75.162 17.0278C75.1507 16.9719 75.1451 16.9154 75.1451 16.8581C75.1451 16.801 75.1394 16.7445 75.1282 16.6883C75.1169 16.6322 75.1002 16.578 75.0779 16.5251C75.0558 16.4722 75.0286 16.4221 74.9964 16.3746C74.9642 16.3271 74.9278 16.2832 74.8869 16.2426C74.8458 16.2023 74.8014 16.1664 74.7533 16.1346C74.7051 16.1028 74.6544 16.0759 74.6008 16.0541C74.5473 16.0323 74.4923 16.0156 74.4355 16.0045C74.3786 15.9934 74.3213 15.9878 74.2636 15.9878H73.382C73.324 15.9878 73.2667 15.9934 73.2099 16.0045C73.1533 16.0156 73.0981 16.0323 73.0445 16.0541C72.9912 16.0759 72.9402 16.1028 72.8923 16.1346C72.8442 16.1664 72.7995 16.2023 72.7587 16.2426C72.7178 16.2832 72.6812 16.3271 72.649 16.3746C72.6168 16.4221 72.5898 16.4722 72.5675 16.5251C72.5454 16.578 72.5287 16.6322 72.5174 16.6883C72.5062 16.7445 72.5005 16.801 72.5005 16.8581C72.5005 16.9154 72.4949 16.9719 72.4834 17.0278C72.4721 17.0839 72.4554 17.1384 72.4334 17.1913C72.4113 17.244 72.384 17.294 72.3518 17.3416C72.3197 17.3891 72.2833 17.4332 72.2422 17.4735C72.2013 17.5139 72.1567 17.5501 72.1087 17.5818C72.0606 17.6136 72.0096 17.6403 71.9563 17.6623C71.9028 17.6841 71.8476 17.7006 71.7909 17.7117C71.7341 17.7228 71.6768 17.7284 71.6188 17.7284H69.8558C69.798 17.7284 69.7407 17.7339 69.6838 17.7451C69.627 17.7564 69.572 17.7729 69.5185 17.7947C69.4649 17.8165 69.4142 17.8434 69.366 17.8752C69.3179 17.9069 69.2735 17.9429 69.2324 17.9835C69.1915 18.0238 69.1549 18.0676 69.1229 18.1152C69.0907 18.1627 69.0635 18.213 69.0414 18.2657C69.0191 18.3185 69.0024 18.373 68.9912 18.4289C68.9799 18.485 68.9742 18.5416 68.9742 18.5987V20.3395C68.9742 20.3965 68.9799 20.4531 68.9912 20.5092C69.0024 20.5654 69.0191 20.6196 69.0414 20.6725C69.0635 20.7254 69.0907 20.7754 69.1229 20.823C69.1549 20.8705 69.1915 20.9144 69.2324 20.9549C69.2735 20.9953 69.3179 21.0312 69.366 21.063C69.4142 21.0948 69.4649 21.1217 69.5185 21.1435C69.572 21.1653 69.627 21.182 69.6838 21.1931C69.7407 21.2042 69.798 21.2098 69.8558 21.2098C69.9138 21.2098 69.9711 21.2153 70.0277 21.2265C70.0845 21.2376 70.1397 21.2541 70.193 21.2761C70.2466 21.2979 70.2973 21.3246 70.3455 21.3563C70.3936 21.3881 70.4383 21.4243 70.4791 21.4646C70.52 21.505 70.5566 21.549 70.5888 21.5966C70.621 21.6441 70.648 21.6942 70.6703 21.7471C70.6924 21.7997 70.7091 21.8542 70.7204 21.9103C70.7316 21.9662 70.7373 22.023 70.7373 22.0801V34.2646C70.7373 34.3217 70.7316 34.3783 70.7204 34.4344C70.7091 34.4905 70.6924 34.5448 70.6703 34.5976C70.648 34.6505 70.621 34.7006 70.5888 34.7481C70.5566 34.7957 70.52 34.8395 70.4791 34.8801C70.4383 34.9204 70.3936 34.9564 70.3455 34.9882C70.2973 35.0199 70.2466 35.0468 70.193 35.0686C70.1397 35.0904 70.0845 35.1071 70.0277 35.1182C69.9711 35.1294 69.9138 35.1349 69.8558 35.1349C69.798 35.1349 69.7407 35.1405 69.6838 35.1516C69.627 35.1628 69.572 35.1792 69.5185 35.201C69.4649 35.2231 69.4142 35.2497 69.366 35.2815C69.3179 35.3133 69.2735 35.3494 69.2324 35.3898C69.1915 35.4301 69.1549 35.4742 69.1229 35.5217C69.0907 35.5693 69.0635 35.6194 69.0414 35.6722C69.0191 35.7249 69.0024 35.7794 68.9912 35.8355C68.9799 35.8914 68.9742 35.948 68.9742 36.0052V37.7458C68.9742 37.8031 68.9799 37.8597 68.9912 37.9156C69.0024 37.9717 69.0191 38.0262 69.0414 38.0788C69.0635 38.1317 69.0907 38.1818 69.1229 38.2293C69.1549 38.2769 69.1915 38.3209 69.2324 38.3613C69.2735 38.4016 69.3179 38.4378 69.366 38.4696C69.4142 38.5013 69.4649 38.528 69.5185 38.55C69.572 38.5718 69.627 38.5883 69.6838 38.5994C69.7407 38.6105 69.798 38.6161 69.8558 38.6161H71.6188C71.6768 38.6161 71.7341 38.6217 71.7909 38.6328C71.8476 38.6439 71.9028 38.6606 71.9563 38.6824C72.0096 38.7042 72.0606 38.7311 72.1087 38.7629C72.1567 38.7947 72.2013 38.8306 72.2422 38.8712C72.2833 38.9115 72.3197 38.9554 72.3518 39.0029C72.384 39.0504 72.4113 39.1005 72.4334 39.1534C72.4554 39.2063 72.4721 39.2608 72.4834 39.3167C72.4949 39.3728 72.5005 39.4294 72.5005 39.4864C72.5005 39.5437 72.5062 39.6003 72.5174 39.6564C72.5287 39.7123 72.5454 39.7668 72.5675 39.8196C72.5898 39.8723 72.6168 39.9226 72.649 39.9701C72.6812 40.0174 72.7178 40.0615 72.7587 40.1018C72.7995 40.1424 72.8442 40.1784 72.8923 40.2101C72.9402 40.2419 72.9912 40.2688 73.0445 40.2906C73.0981 40.3124 73.1533 40.3289 73.2099 40.34C73.2667 40.3511 73.324 40.3569 73.382 40.3569H74.2636C74.3213 40.3569 74.3786 40.3511 74.4355 40.34C74.4923 40.3289 74.5473 40.3124 74.6008 40.2906C74.6544 40.2688 74.7051 40.2419 74.7533 40.2101C74.8014 40.1784 74.8458 40.1424 74.8869 40.1018C74.9278 40.0615 74.9642 40.0174 74.9964 39.9701C75.0286 39.9226 75.0558 39.8723 75.0779 39.8196C75.1002 39.7668 75.1169 39.7123 75.1282 39.6564C75.1394 39.6003 75.1451 39.5437 75.1451 39.4864C75.1451 39.4294 75.1507 39.3728 75.162 39.3167C75.1733 39.2608 75.1899 39.2063 75.2122 39.1534C75.2343 39.1005 75.2616 39.0504 75.2935 39.0029C75.3257 38.9554 75.3623 38.9115 75.4032 38.8712C75.4441 38.8306 75.4887 38.7947 75.5368 38.7629C75.585 38.7311 75.6357 38.7042 75.6893 38.6824C75.7426 38.6606 75.7978 38.6439 75.8546 38.6328C75.9115 38.6217 75.9688 38.6161 76.0266 38.6161H76.9081C76.9661 38.6161 77.0234 38.6217 77.08 38.6328C77.1369 38.6439 77.1921 38.6606 77.2454 38.6824C77.2989 38.7042 77.3497 38.7311 77.3978 38.7629C77.446 38.7947 77.4906 38.8306 77.5315 38.8712C77.5723 38.9115 77.609 38.9554 77.6412 39.0029C77.6733 39.0504 77.7003 39.1005 77.7227 39.1534C77.7447 39.2063 77.7614 39.2608 77.7727 39.3167C77.784 39.3728 77.7896 39.4294 77.7896 39.4864C77.7896 39.5437 77.7952 39.6003 77.8065 39.6564C77.8178 39.7123 77.8347 39.7668 77.8568 39.8196C77.8789 39.8723 77.9061 39.9226 77.9383 39.9701C77.9705 40.0174 78.0069 40.0615 78.048 40.1018C78.0888 40.1424 78.1332 40.1784 78.1814 40.2101C78.2295 40.2419 78.2803 40.2688 78.3338 40.2906C78.3874 40.3124 78.4426 40.3289 78.4992 40.34C78.556 40.3511 78.6133 40.3569 78.6711 40.3569H79.5529C79.6106 40.3569 79.668 40.3511 79.7248 40.34C79.7814 40.3289 79.8366 40.3124 79.8902 40.2906C79.9435 40.2688 79.9944 40.2419 80.0426 40.2101C80.0907 40.1784 80.1351 40.1424 80.176 40.1018C80.2171 40.0615 80.2535 40.0174 80.2857 39.9701C80.3179 39.9226 80.3451 39.8723 80.3672 39.8196C80.3893 39.7668 80.406 39.7123 80.4175 39.6564C80.4287 39.6003 80.4344 39.5437 80.4344 39.4864C80.4344 39.4294 80.44 39.3728 80.4513 39.3167C80.4626 39.2608 80.4792 39.2063 80.5013 39.1534C80.5236 39.1005 80.5506 39.0504 80.5828 39.0029C80.615 38.9554 80.6516 38.9115 80.6925 38.8712C80.7334 38.8306 80.778 38.7947 80.8262 38.7629C80.8743 38.7311 80.925 38.7042 80.9786 38.6824C81.0319 38.6606 81.0871 38.6439 81.144 38.6328C81.2006 38.6217 81.2579 38.6161 81.3159 38.6161H82.0079C82.1065 38.6175 82.2052 38.6163 82.3038 38.6131C82.4022 38.6099 82.5009 38.6043 82.599 38.5964C82.6975 38.5885 82.7954 38.5783 82.8934 38.566C82.9913 38.5535 83.0888 38.5389 83.1858 38.522C83.283 38.5048 83.3798 38.4858 83.4759 38.4642C83.5722 38.4429 83.6678 38.4192 83.7629 38.3933C83.858 38.3675 83.9524 38.3395 84.0464 38.3091C84.1401 38.2789 84.2331 38.2465 84.3252 38.2119C84.4175 38.1774 84.5089 38.1407 84.5993 38.1018C84.69 38.063 84.7795 38.0222 84.868 37.9793C84.9566 37.9362 85.0439 37.8912 85.1304 37.8444C85.2168 37.7973 85.3021 37.7484 85.3859 37.6974C85.47 37.6463 85.5529 37.5935 85.6344 37.5385C85.7159 37.4838 85.7963 37.4272 85.875 37.3685C85.9539 37.3101 86.0314 37.2498 86.1072 37.1877C86.1833 37.1255 86.2578 37.0617 86.3306 36.9961C86.4037 36.9305 86.4751 36.8632 86.5448 36.7944C86.6144 36.7255 86.6825 36.655 86.7489 36.5829C86.8154 36.511 86.88 36.4375 86.943 36.3623C87.0057 36.2872 87.0667 36.2109 87.1262 36.133C87.1854 36.0551 87.2427 35.976 87.2981 35.8953C87.3535 35.8148 87.4071 35.733 87.4588 35.65C87.5104 35.567 87.56 35.4828 87.6074 35.3974C87.6551 35.3121 87.7007 35.2258 87.7441 35.1384C87.7876 35.051 87.8289 34.9626 87.8682 34.8731C87.9074 34.7839 87.9445 34.6936 87.9795 34.6025C88.0145 34.5116 88.0474 34.4196 88.0779 34.327C88.1084 34.2345 88.1369 34.1413 88.1629 34.0474C88.1892 33.9534 88.2132 33.8588 88.2348 33.764C88.2564 33.6689 88.2759 33.5734 88.2931 33.4776C88.31 33.3816 88.325 33.2854 88.3375 33.1887C88.3499 33.0922 88.3602 32.9953 88.3682 32.8981C88.3896 32.5299 88.3771 32.1625 88.3304 31.7964C88.2839 31.4302 88.2043 31.0713 88.0913 30.7195C87.9783 30.3679 87.8339 30.0291 87.6582 29.7033C87.4825 29.3777 87.2784 29.0705 87.0458 28.7815C87.0113 28.7386 86.9805 28.693 86.9538 28.645C86.9268 28.5967 86.9042 28.5469 86.8859 28.4949C86.8676 28.443 86.8537 28.3901 86.8445 28.3358C86.8351 28.2818 86.8305 28.2273 86.8305 28.1724C86.8305 28.1174 86.8351 28.0629 86.8445 28.0086C86.8537 27.9546 86.8676 27.9015 86.8859 27.8498C86.9042 27.7979 86.9268 27.7478 86.9538 27.6998C86.9805 27.6518 87.0113 27.6061 87.0458 27.5632C87.2784 27.2742 87.4825 26.967 87.6582 26.6412C87.8339 26.3156 87.9783 25.9768 88.0913 25.625C88.2043 25.2732 88.2839 24.9145 88.3304 24.5483C88.3771 24.1822 88.3896 23.8149 88.3682 23.4464ZM83.9604 32.8503C83.9531 32.9269 83.9423 33.0029 83.9282 33.0783C83.9139 33.1539 83.8961 33.2285 83.8749 33.3025C83.8536 33.3765 83.8291 33.4493 83.8012 33.521C83.7732 33.5926 83.742 33.6631 83.7075 33.732C83.6729 33.8009 83.6353 33.8679 83.5947 33.9335C83.5538 33.9989 83.5102 34.0624 83.4636 34.1241C83.4171 34.1856 83.3678 34.2449 83.3157 34.302C83.2635 34.359 83.2088 34.4138 83.1517 34.4659C83.0947 34.5181 83.0352 34.5675 82.9735 34.6143C82.9117 34.661 82.8478 34.705 82.782 34.7461C82.7163 34.7871 82.6486 34.8249 82.5793 34.8599C82.51 34.8949 82.4393 34.9265 82.367 34.955C82.2946 34.9835 82.2214 35.0088 82.1467 35.0308C82.072 35.0526 81.9966 35.0712 81.9202 35.0862C81.8439 35.1013 81.7671 35.1129 81.6898 35.121C81.6123 35.1291 81.5348 35.1338 81.4568 35.1349H75.9033C75.8509 35.1324 75.7994 35.125 75.7487 35.1124C75.698 35.0999 75.6491 35.0825 75.6017 35.0605C75.5545 35.0387 75.5098 35.0123 75.4678 34.9817C75.4257 34.9508 75.3872 34.9165 75.352 34.8782C75.3168 34.8402 75.2858 34.7989 75.2587 34.7549C75.2317 34.7106 75.2094 34.6642 75.1916 34.6157C75.174 34.567 75.161 34.5174 75.1533 34.4664C75.1453 34.4154 75.1427 34.3639 75.1451 34.3124V30.7355C75.1427 30.6838 75.1453 30.6325 75.1533 30.5815C75.161 30.5305 75.174 30.4809 75.1916 30.4322C75.2094 30.3837 75.2317 30.3373 75.2587 30.293C75.2858 30.249 75.3168 30.2077 75.352 30.1697C75.3872 30.1314 75.4257 30.0968 75.4678 30.0662C75.5098 30.0356 75.5545 30.0092 75.6017 29.9872C75.6491 29.9651 75.698 29.948 75.7487 29.9354C75.7994 29.9229 75.8509 29.9155 75.9033 29.9129H81.5583C82.9819 29.9129 84.1192 31.2663 83.9604 32.8503ZM83.9604 24.1472C83.9531 24.2237 83.9423 24.2995 83.9282 24.3751C83.9139 24.4507 83.8961 24.5254 83.8749 24.5994C83.8536 24.6733 83.8291 24.7461 83.8012 24.8178C83.7732 24.8895 83.742 24.9597 83.7075 25.0286C83.6729 25.0975 83.6353 25.1647 83.5947 25.2303C83.5538 25.2957 83.5102 25.3593 83.4636 25.4207C83.4171 25.4824 83.3678 25.5418 83.3157 25.5988C83.2635 25.6559 83.2088 25.7106 83.1517 25.7625C83.0947 25.8147 83.0352 25.8643 82.9735 25.9109C82.9117 25.9578 82.8478 26.0018 82.782 26.0429C82.7163 26.0837 82.6486 26.1217 82.5793 26.1568C82.51 26.1915 82.4393 26.2233 82.367 26.2518C82.2946 26.2803 82.2214 26.3056 82.1467 26.3274C82.072 26.3495 81.9966 26.3678 81.9202 26.3831C81.8439 26.3982 81.7671 26.4097 81.6898 26.4179C81.6123 26.426 81.5348 26.4306 81.4568 26.4318H75.9033C75.8509 26.4292 75.7994 26.4216 75.7487 26.409C75.698 26.3968 75.6491 26.3794 75.6017 26.3573C75.5545 26.3353 75.5098 26.3091 75.4678 26.2783C75.4257 26.2477 75.3872 26.2133 75.352 26.1751C75.3168 26.137 75.2858 26.0958 75.2587 26.0515C75.2317 26.0074 75.2094 25.961 75.1916 25.9123C75.174 25.8639 75.161 25.814 75.1533 25.763C75.1453 25.712 75.1427 25.6607 75.1451 25.6093V22.0323C75.1427 21.9806 75.1453 21.9293 75.1533 21.8783C75.161 21.8273 75.174 21.7775 75.1916 21.729C75.2094 21.6805 75.2317 21.6341 75.2587 21.5899C75.2858 21.5456 75.3168 21.5045 75.352 21.4663C75.3872 21.4282 75.4257 21.3937 75.4678 21.3631C75.5098 21.3325 75.5545 21.306 75.6017 21.284C75.6491 21.262 75.698 21.2448 75.7487 21.2323C75.7994 21.2198 75.8509 21.2123 75.9033 21.2098H81.5583C82.9819 21.2098 84.1192 22.5631 83.9604 24.1472Z" fill="white"/>
</svg>
