<svg viewBox="0 0 149 144" fill="none" xmlns="http://www.w3.org/2000/svg">
<mask id="mask0_1960_423" style="mask-type:luminance" maskUnits="userSpaceOnUse" x="0" y="49" width="100" height="95">
<path d="M0 49.4087H99.9143V144H0V49.4087Z" fill="white"/>
</mask>
<g mask="url(#mask0_1960_423)">
<path d="M97.6235 96.829C97.6235 98.3692 97.542 99.9094 97.3881 101.45C97.2251 102.99 96.9897 104.512 96.6819 106.026C96.374 107.549 95.9847 109.046 95.5139 110.525C95.0521 112.003 94.5179 113.456 93.9022 114.883C93.2956 116.309 92.6074 117.701 91.8559 119.066C91.1044 120.431 90.2805 121.752 89.3932 123.039C88.5058 124.316 87.5551 125.559 86.5411 126.758C85.527 127.948 84.4586 129.095 83.3268 130.188C82.195 131.274 81.0089 132.315 79.7775 133.295C78.537 134.275 77.2604 135.194 75.9294 136.052C74.5984 136.909 73.2312 137.706 71.8188 138.432C70.4063 139.158 68.9667 139.815 67.4908 140.41C66.0149 141.005 64.5119 141.521 62.9818 141.968C61.4516 142.423 59.9033 142.79 58.3369 143.096C56.7705 143.394 55.186 143.621 53.5924 143.77C52.0079 143.928 50.4144 143.998 48.8118 143.998C47.2092 143.998 45.6156 143.928 44.0311 143.77C42.4375 143.621 40.8621 143.394 39.2866 143.096C37.7202 142.79 36.172 142.423 34.6418 141.968C33.1116 141.521 31.6086 141.005 30.1327 140.41C28.6569 139.815 27.2172 139.158 25.8048 138.432C24.3923 137.706 23.0251 136.909 21.6941 136.052C20.3631 135.194 19.0865 134.275 17.846 133.295C16.6147 132.315 15.4285 131.274 14.2967 130.188C13.165 129.095 12.0966 127.948 11.0825 126.758C10.0684 125.559 9.11769 124.316 8.23036 123.039C7.34304 121.752 6.5191 120.431 5.76759 119.066C5.01609 117.701 4.32796 116.309 3.72132 114.883C3.10563 113.456 2.57142 112.003 2.10965 110.525C1.63883 109.046 1.2495 107.549 0.941648 106.026C0.633803 104.512 0.398388 102.99 0.235412 101.45C0.0814893 99.9094 0 98.3692 0 96.829C0 95.28 0.0814893 93.7398 0.235412 92.1996C0.398388 90.6681 0.633803 89.1367 0.941648 87.6227C1.2495 86.1088 1.63883 84.6123 2.10965 83.1334C2.57142 81.6544 3.10563 80.2017 3.72132 78.7753C4.32796 77.3488 5.01609 75.9487 5.76759 74.5922C6.5191 73.227 7.34304 71.9056 8.23036 70.6192C9.11769 69.3328 10.0684 68.0988 11.0825 66.8999C12.0966 65.7098 13.165 64.5634 14.2967 63.4695C15.4285 62.3756 16.6147 61.3429 17.846 60.3628C19.0865 59.3827 20.3631 58.4638 21.6941 57.6062C23.0251 56.7486 24.3923 55.9522 25.8048 55.2259C27.2172 54.4995 28.6569 53.8344 30.1327 53.2481C31.6086 52.653 33.1116 52.1367 34.6418 51.6816C36.172 51.2353 37.7202 50.859 39.2866 50.5615C40.8621 50.2552 42.4375 50.0277 44.0311 49.8789C45.6156 49.7301 47.2092 49.6514 48.8118 49.6514C50.4144 49.6514 52.0079 49.7301 53.5924 49.8789C55.186 50.0277 56.7705 50.2552 58.3369 50.5615C59.9033 50.859 61.4516 51.2353 62.9818 51.6816C64.5119 52.1367 66.0149 52.653 67.4908 53.2481C68.9667 53.8344 70.4063 54.4995 71.8188 55.2259C73.2312 55.9522 74.5984 56.7486 75.9294 57.6062C77.2604 58.4638 78.537 59.3827 79.7775 60.3628C81.0089 61.3429 82.195 62.3756 83.3268 63.4695C84.4586 64.5634 85.527 65.7098 86.5411 66.8999C87.5551 68.0988 88.5058 69.3328 89.3932 70.6192C90.2805 71.9056 91.1044 73.227 91.8559 74.5922C92.6074 75.9487 93.2956 77.3488 93.9022 78.7753C94.5179 80.2017 95.0521 81.6544 95.5139 83.1334C95.9847 84.6123 96.374 86.1088 96.6819 87.6227C96.9897 89.1367 97.2251 90.6681 97.3881 92.1996C97.542 93.7398 97.6235 95.28 97.6235 96.829Z" fill="#356BAA"/>
<path d="M82.1997 96.8315C82.1997 98.9493 81.9915 101.05 81.5569 103.124C81.1313 105.206 80.4975 107.228 79.6645 109.179C78.8225 111.14 77.7903 113.004 76.577 114.763C75.3547 116.522 73.9694 118.158 72.4211 119.655C70.8728 121.151 69.1796 122.49 67.3597 123.671C65.5398 124.844 63.6112 125.842 61.5831 126.647C59.564 127.461 57.4724 128.073 55.3265 128.484C53.1716 128.896 50.9986 129.106 48.8074 129.106C46.6163 129.106 44.4433 128.896 42.2883 128.484C40.1425 128.073 38.0509 127.461 36.0318 126.647C34.0036 125.842 32.0751 124.844 30.2552 123.671C28.4353 122.49 26.7421 121.151 25.1938 119.655C23.6455 118.158 22.2602 116.522 21.0379 114.763C19.8246 113.004 18.7924 111.14 17.9504 109.179C17.1174 107.228 16.4836 105.206 16.058 103.124C15.6234 101.05 15.4152 98.9493 15.4152 96.8315C15.4152 94.7137 15.6234 92.6134 16.058 90.5306C16.4836 88.4566 17.1174 86.4351 17.9504 84.4748C18.7924 82.5233 19.8246 80.6593 21.0379 78.9003C22.2602 77.1326 23.6455 75.5049 25.1938 74.0084C26.7421 72.5119 28.4353 71.173 30.2552 69.9916C32.0751 68.819 34.0036 67.8213 36.0318 67.0075C38.0509 66.2024 40.1425 65.5898 42.2883 65.1697C44.4433 64.7584 46.6163 64.5571 48.8074 64.5571C50.9986 64.5571 53.1716 64.7584 55.3265 65.1697C57.4724 65.5898 59.564 66.2024 61.5831 67.0075C63.6112 67.8213 65.5398 68.819 67.3597 69.9916C69.1796 71.173 70.8728 72.5119 72.4211 74.0084C73.9694 75.5049 75.3547 77.1326 76.577 78.9003C77.7903 80.6593 78.8225 82.5233 79.6645 84.4748C80.4975 86.4351 81.1313 88.4566 81.5569 90.5306C81.9915 92.6134 82.1997 94.7137 82.1997 96.8315Z" fill="#F7F7F7"/>
<path d="M81.3101 104.276C81.8986 101.896 82.2065 99.3844 82.2065 96.8291C82.2065 94.2737 81.8986 91.7621 81.3101 89.3818H41.109V84.4111L25.6985 96.8291L41.109 109.238V104.276H81.3101Z" fill="#14A8A4"/>
</g>
<mask id="mask1_1960_423" style="mask-type:luminance" maskUnits="userSpaceOnUse" x="51" y="0" width="98" height="97">
<path d="M51.2407 0H149V96.4555H51.2407V0Z" fill="white"/>
</mask>
<g mask="url(#mask1_1960_423)">
<path d="M149.005 47.1776C149.005 73.2211 127.139 94.3464 100.193 94.3464C93.6198 94.3464 87.3542 93.0775 81.6228 90.7935C79.0786 77.8155 68.4941 67.5853 55.0575 65.1263C52.6943 59.5868 51.3905 53.5309 51.3905 47.1776C51.3905 21.1253 73.2476 0 100.193 0C127.139 0 149.005 21.1253 149.005 47.1776Z" fill="#4A8CDD"/>
<path d="M133.586 47.1762C133.586 49.2939 133.369 51.3942 132.943 53.4683C132.509 55.551 131.884 57.5638 131.042 59.5241C130.2 61.4843 129.177 63.3396 127.954 65.1073C126.732 66.8663 125.356 68.494 123.799 69.9992C122.25 71.4957 120.566 72.8346 118.737 74.0073C116.917 75.1887 114.998 76.1776 112.97 76.9914C110.941 77.8053 108.85 78.4179 106.704 78.8292C104.549 79.2405 102.376 79.4505 100.185 79.4505C97.9937 79.4505 95.8207 79.2405 93.6748 78.8292C91.5199 78.4179 89.4374 77.8053 87.4093 76.9914C85.3811 76.1776 83.4616 75.1887 81.6326 74.0073C79.8127 72.8346 78.1286 71.4957 76.5713 69.9992C75.023 68.494 73.6377 66.8663 72.4244 65.1073C71.202 63.3396 70.1699 61.4843 69.3369 59.5241C68.4948 57.5638 67.861 55.551 67.4355 53.4683C67.0099 51.3942 66.7926 49.2939 66.7926 47.1762C66.7926 45.0496 67.0099 42.9493 67.4355 40.8753C67.861 38.7925 68.4948 36.7798 69.3369 34.8195C70.1699 32.8592 71.202 31.004 72.4244 29.2362C73.6377 27.4773 75.023 25.8495 76.5713 24.3531C78.1286 22.8479 79.8127 21.509 81.6326 20.3363C83.4616 19.1549 85.3811 18.166 87.4093 17.3521C89.4374 16.5383 91.5199 15.9257 93.6748 15.5144C95.8207 15.1031 97.9937 14.8931 100.185 14.8931C102.376 14.8931 104.549 15.1031 106.704 15.5144C108.85 15.9257 110.941 16.5383 112.97 17.3521C114.998 18.166 116.917 19.1549 118.737 20.3363C120.566 21.509 122.25 22.8479 123.799 24.3531C125.356 25.8495 126.732 27.4773 127.954 29.2362C129.177 31.004 130.2 32.8592 131.042 34.8195C131.884 36.7798 132.509 38.7925 132.943 40.8753C133.369 42.9493 133.586 45.0496 133.586 47.1762Z" fill="#F7F7F7"/>
<path d="M67.689 39.7222C67.1004 42.1112 66.7926 44.6141 66.7926 47.1782C66.7926 49.7335 67.1004 52.2364 67.689 54.6254H107.89V59.5873L123.31 47.1782L107.89 34.7603V39.7222H67.689Z" fill="#ED6E5D"/>
</g>
</svg>
