<svg viewBox="0 0 154 143" fill="none" xmlns="http://www.w3.org/2000/svg">
<path d="M100.162 36.5491L89.2342 14.0244C88.7921 13.1191 87.7945 12.5321 86.6836 12.5321H79.7346V2.75215C79.7346 1.40903 78.4764 0.304688 76.946 0.304688C75.427 0.304688 74.1687 1.40903 74.1687 2.75215V12.5321H67.2197C66.1088 12.5321 65.1112 13.1191 64.6691 14.0244L53.7413 36.5491C53.3785 37.3052 53.4579 38.1608 53.9906 38.8473C54.5234 39.5338 55.385 39.9517 56.2918 39.9517H97.6001C98.5524 39.9517 99.4139 39.5338 99.9127 38.8473C100.411 38.1608 100.525 37.3052 100.162 36.5491Z" fill="#1976D2"/>
<path d="M45.1739 56.5474H2.77731C1.24696 56.5474 0 57.6517 0 58.9948V139.702C0 141.045 1.24696 142.149 2.77731 142.149H45.1739C46.6929 142.149 47.9512 141.045 47.9512 139.702V58.9948C47.9512 57.6517 46.6929 56.5474 45.1739 56.5474Z" fill="#1976D2"/>
<path d="M151.11 76.4624H108.713C107.183 76.4624 105.936 77.5667 105.936 78.9099V139.709C105.936 141.052 107.183 142.156 108.713 142.156H151.11C152.64 142.156 153.887 141.052 153.887 139.709V78.9099C153.887 77.5667 152.64 76.4624 151.11 76.4624Z" fill="#2196F3"/>
<path d="M108.719 35.062H45.1811C43.6508 35.062 42.3925 36.1664 42.3925 37.5095V139.716C42.3925 141.059 43.6508 142.164 45.1811 142.164H108.719C110.25 142.164 111.508 141.059 111.508 139.716V37.5095C111.508 36.1664 110.25 35.062 108.719 35.062Z" fill="#64B5F6"/>
<path d="M94.8219 56.5566H59.0795C57.5492 56.5566 56.2909 57.661 56.2909 59.0041C56.2909 60.3472 57.5492 61.4516 59.0795 61.4516H94.8219C96.3522 61.4516 97.5992 60.3472 97.5992 59.0041C97.5992 57.661 96.3522 56.5566 94.8219 56.5566Z" fill="#EEEFEE"/>
<path d="M94.8219 73.2236H59.0795C57.5492 73.2236 56.2909 74.328 56.2909 75.6711C56.2909 77.0142 57.5492 78.1186 59.0795 78.1186H94.8219C96.3522 78.1186 97.5992 77.0142 97.5992 75.6711C97.5992 74.328 96.3522 73.2236 94.8219 73.2236Z" fill="#EEEFEE"/>
<path d="M94.8219 89.9121H59.0795C57.5492 89.9121 56.2909 91.0165 56.2909 92.3596C56.2909 93.7027 57.5492 94.807 59.0795 94.807H94.8219C96.3522 94.807 97.5992 93.7027 97.5992 92.3596C97.5992 91.0165 96.3522 89.9121 94.8219 89.9121Z" fill="#EEEFEE"/>
<path d="M94.8219 106.596H59.0795C57.5492 106.596 56.2909 107.69 56.2909 109.033C56.2909 110.386 57.5492 111.481 59.0795 111.481H94.8219C96.3522 111.481 97.5992 110.386 97.5992 109.033C97.5992 107.69 96.3522 106.596 94.8219 106.596Z" fill="#EEEFEE"/>
<path d="M94.8219 123.292H59.0795C57.5492 123.292 56.2909 124.396 56.2909 125.739C56.2909 127.093 57.5492 128.187 59.0795 128.187H94.8219C96.3522 128.187 97.5992 127.093 97.5992 125.739C97.5992 124.396 96.3522 123.292 94.8219 123.292Z" fill="#EEEFEE"/>
<path d="M31.172 68.0776H16.4579C14.9388 68.0776 13.6805 69.172 13.6805 70.5251V83.4589C13.6805 84.802 14.9388 85.9063 16.4579 85.9063H31.172C32.7023 85.9063 33.9493 84.802 33.9493 83.4589V70.5251C33.9493 69.172 32.7023 68.0776 31.172 68.0776Z" fill="#EEEFEE"/>
<path d="M31.172 89.9121H16.4579C14.9388 89.9121 13.6805 91.0165 13.6805 92.3596V105.293C13.6805 106.636 14.9388 107.741 16.4579 107.741H31.172C32.7023 107.741 33.9493 106.636 33.9493 105.293V92.3596C33.9493 91.0165 32.7023 89.9121 31.172 89.9121Z" fill="#EEEFEE"/>
<path d="M31.172 111.75H16.4579C14.9388 111.75 13.6805 112.854 13.6805 114.197V127.131C13.6805 128.484 14.9388 129.578 16.4579 129.578H31.172C32.7023 129.578 33.9493 128.484 33.9493 127.131V114.197C33.9493 112.854 32.7023 111.75 31.172 111.75Z" fill="#EEEFEE"/>
<path d="M136.8 89.9121H122.097C120.567 89.9121 119.32 91.0165 119.32 92.3596V105.293C119.32 106.636 120.567 107.741 122.097 107.741H136.8C138.33 107.741 139.577 106.636 139.577 105.293V92.3596C139.577 91.0165 138.33 89.9121 136.8 89.9121Z" fill="#EEEFEE"/>
<path d="M136.8 111.75H122.097C120.567 111.75 119.32 112.854 119.32 114.197V127.131C119.32 128.484 120.567 129.578 122.097 129.578H136.8C138.33 129.578 139.577 128.484 139.577 127.131V114.197C139.577 112.854 138.33 111.75 136.8 111.75Z" fill="#EEEFEE"/>
</svg>
