<svg viewBox="0 0 75 77" fill="none" xmlns="http://www.w3.org/2000/svg">
<ellipse cx="37.5" cy="38.5" rx="37.5" ry="38.5" fill="#020DD9"/>
<ellipse cx="37.5" cy="38.5" rx="35.5" ry="36.5" fill="white"/>
<g filter="url(#filter0_b_1960_387)">
<path d="M33.7969 35.4922H36.1797C37.638 35.4922 38.8555 35.2448 39.832 34.75C40.8216 34.2422 41.5638 33.5716 42.0586 32.7383C42.5664 31.9049 42.8203 30.9805 42.8203 29.9648C42.8203 28.819 42.6055 27.8164 42.1758 26.957C41.7461 26.0846 41.0885 25.4076 40.2031 24.9258C39.3307 24.431 38.2109 24.1836 36.8438 24.1836C35.6458 24.1836 34.5781 24.418 33.6406 24.8867C32.7031 25.3555 31.9609 26.026 31.4141 26.8984C30.8672 27.7708 30.5938 28.8125 30.5938 30.0234H28.2695C28.2695 28.474 28.6406 27.1133 29.3828 25.9414C30.125 24.7565 31.1471 23.832 32.4492 23.168C33.7513 22.5039 35.2161 22.1719 36.8438 22.1719C38.5234 22.1719 39.9818 22.4779 41.2188 23.0898C42.4688 23.7018 43.4323 24.5938 44.1094 25.7656C44.7995 26.9375 45.1445 28.3633 45.1445 30.043C45.1445 30.9023 44.9557 31.7487 44.5781 32.582C44.2135 33.4154 43.6667 34.1706 42.9375 34.8477C42.2083 35.5117 41.3034 36.0456 40.2227 36.4492C39.1419 36.8529 37.8854 37.0547 36.4531 37.0547H33.7969V35.4922ZM33.7969 37.5039V35.9609H36.4531C38.0807 35.9609 39.474 36.1497 40.6328 36.5273C41.7917 36.8919 42.7422 37.4128 43.4844 38.0898C44.2396 38.7539 44.793 39.5286 45.1445 40.4141C45.4961 41.2995 45.6719 42.25 45.6719 43.2656C45.6719 44.5677 45.457 45.7201 45.0273 46.7227C44.5977 47.7253 43.9857 48.5781 43.1914 49.2812C42.4102 49.9714 41.4857 50.4987 40.418 50.8633C39.3633 51.2148 38.2044 51.3906 36.9414 51.3906C35.7956 51.3906 34.6758 51.2214 33.582 50.8828C32.5013 50.5443 31.5247 50.043 30.6523 49.3789C29.793 48.7018 29.1094 47.8555 28.6016 46.8398C28.0938 45.8112 27.8398 44.6263 27.8398 43.2852H30.1641C30.1641 44.4831 30.4505 45.5443 31.0234 46.4688C31.5964 47.3802 32.3906 48.0964 33.4062 48.6172C34.4349 49.125 35.6133 49.3789 36.9414 49.3789C38.2826 49.3789 39.4284 49.151 40.3789 48.6953C41.3424 48.2266 42.0781 47.543 42.5859 46.6445C43.0938 45.7461 43.3477 44.6458 43.3477 43.3438C43.3477 41.9766 43.0417 40.8633 42.4297 40.0039C41.8307 39.1445 40.9909 38.513 39.9102 38.1094C38.8424 37.7057 37.599 37.5039 36.1797 37.5039H33.7969Z" fill="#4D4D4D"/>
</g>
<defs>
<filter id="filter0_b_1960_387" x="23.8398" y="18.1719" width="25.832" height="37.2188" filterUnits="userSpaceOnUse" color-interpolation-filters="sRGB">
<feFlood flood-opacity="0" result="BackgroundImageFix"/>
<feGaussianBlur in="BackgroundImageFix" stdDeviation="2"/>
<feComposite in2="SourceAlpha" operator="in" result="effect1_backgroundBlur_1960_387"/>
<feBlend mode="normal" in="SourceGraphic" in2="effect1_backgroundBlur_1960_387" result="shape"/>
</filter>
</defs>
</svg>
