<svg width="778" height="550" viewBox="0 0 778 550" fill="none" xmlns="http://www.w3.org/2000/svg">
<mask id="mask0_1960_468" style="mask-type:luminance" maskUnits="userSpaceOnUse" x="0" y="0" width="800" height="675">
<path d="M800 0H0V675H800V0Z" fill="white"/>
</mask>
<g mask="url(#mask0_1960_468)">
<mask id="mask1_1960_468" style="mask-type:luminance" maskUnits="userSpaceOnUse" x="2" y="0" width="799" height="676">
<path d="M2.75171 0.95752H800.012V675.006H2.75171V0.95752Z" fill="white"/>
</mask>
<g mask="url(#mask1_1960_468)">
<path d="M778.998 233.65C727.361 217.344 674.214 240.04 621.935 232.203C598.882 228.697 574.771 218.792 561.329 199.383C547.245 179.158 548.733 153.98 550.659 130.663C552.361 109.817 554.501 87.7311 547.031 67.7127C541.263 52.0268 529.747 39.2258 515.449 29.9404C480.229 6.62356 432.647 2.70468 391.241 1.67067C385.911 1.46387 380.571 1.46387 375.242 1.46387C217.953 3.11828 82.8721 97.4301 29.7364 239.834C2.62809 312.69 -21.9117 414.643 65.1602 458.816C100.584 476.766 141.134 482.133 176.986 499.059C196.614 508.345 213.897 520.939 226.066 538.889C238.662 557.677 245.276 579.34 250.819 600.806C261.275 641.049 270.03 680.889 297.555 714.319C322.737 744.863 359.873 766.329 400.841 765.502C439.689 764.675 476.387 745.277 492.611 710.607C502.211 689.968 504.983 667.468 510.751 645.795C516.723 622.478 527.393 601.219 543.189 582.442C604.009 509.999 704.951 490.394 776.868 431.57C810.58 403.91 839.604 365.114 840.46 320.951C841.102 281.318 818.05 245.821 778.998 233.65Z" fill="#233DFF" fill-opacity="0.19"/>
</g>
</g>
</svg>
