<svg viewBox="0 0 150 145" fill="none" xmlns="http://www.w3.org/2000/svg">
<mask id="mask0_1960_402" style="mask-type:luminance" maskUnits="userSpaceOnUse" x="0" y="0" width="150" height="145">
<path d="M0 0.19873H149.753V144.931H0V0.19873Z" fill="white"/>
</mask>
<g mask="url(#mask0_1960_402)">
<path d="M149.75 72.5589C149.75 72.7334 149.75 72.9176 149.73 73.0922C149.71 76.6511 149.419 80.1615 148.867 83.5847C146.258 100.148 137.85 114.839 125.709 125.69H125.699C112.334 137.637 94.4744 144.939 74.8585 144.939C65.2562 144.939 56.0753 143.194 47.657 140.003C46.6135 139.616 45.58 139.199 44.5566 138.762C30.3087 132.663 18.4188 122.403 10.5022 109.564C6.52879 103.105 3.54878 95.9972 1.79288 88.4527C0.598869 83.3325 -0.0232239 78.0087 -0.0232239 72.5589C-0.0232239 70.6388 0.0470128 68.7478 0.217585 66.8859C1.48184 51.0115 8.05392 36.5722 18.2181 25.2361C22.1312 20.8626 26.5762 16.9546 31.4526 13.5993L31.4626 13.5896C32.787 12.6878 34.1416 11.7956 35.5363 10.9811C44.0449 5.88999 53.6773 2.38927 63.9919 0.944379C67.5439 0.440118 71.166 0.187988 74.8585 0.187988C83.648 0.187988 92.1064 1.66198 99.9428 4.35782C112.605 8.70221 123.673 16.2467 132.161 25.9731C143.138 38.5602 149.75 54.8128 149.75 72.5589Z" fill="#03A8E8"/>
<path d="M84.876 129.2C84.876 129.2 80.8023 123.701 81.2538 114.276C81.7053 104.85 80.8023 103.279 74.461 101.32C68.1197 99.3612 61.7783 95.8217 60.8753 91.1088C59.9622 86.396 65.4005 75.3992 65.4005 75.3992C65.4005 75.3992 72.6449 70.6961 78.9862 71.4815C85.3275 72.267 96.194 72.267 101.181 76.5823C106.157 80.8976 109.328 90.721 111.586 91.1088C113.853 91.5064 108.425 108.389 107.512 111.134C106.609 113.888 103.9 124.885 101.632 129.2C99.3647 133.515 97.1071 137.442 95.291 137.442C93.4749 137.442 85.3275 138.228 84.876 129.2Z" fill="#70C573"/>
<path d="M49.6868 128.296C49.2955 130.148 48.5831 135.084 47.67 140C46.6265 139.613 45.593 139.196 44.5696 138.759C30.3217 132.66 18.4318 122.4 10.5151 109.561C6.54179 103.102 3.56178 95.9941 1.80588 88.4496C4.56515 87.0338 8.02679 85.7538 11.4282 85.812C18.8732 85.9574 19.8164 87.7223 26.1577 92.1152C32.489 96.5178 37.4457 107.505 40.1247 107.689C42.8037 107.864 50.3791 124.999 49.6868 128.296Z" fill="#70C573"/>
</g>
<mask id="mask1_1960_402" style="mask-type:luminance" maskUnits="userSpaceOnUse" x="54" y="2" width="96" height="90">
<path d="M54.5334 2.12646H149.763V91.4967H54.5334V2.12646Z" fill="white"/>
</mask>
<g mask="url(#mask1_1960_402)">
<path d="M149.774 72.5604C149.774 72.7349 149.774 72.9192 149.754 73.0937C149.734 76.6526 149.443 80.1631 148.891 83.5862C145.53 78.8151 141.897 71.6488 140.051 70.3979C137.202 68.4584 126.767 67.2948 130.559 72.3373C134.362 77.3896 135.968 77.3896 135.968 77.3896C135.968 77.3896 128.663 91.5962 123.445 90.2191C118.228 88.8518 107.783 70.3979 107.783 70.3979C101.622 65.7044 113.482 62.2522 113.482 62.2522C113.482 62.2522 117.275 59.0424 111.576 55.3768C105.886 51.7015 101.622 59.4981 97.8293 58.5769C94.0266 57.6654 93.0834 61.3309 91.8894 64.9965C90.7054 68.6621 87.2438 70.8634 86.431 64.9965C85.6183 59.1393 76.9492 62.7176 74.0996 62.7176C71.25 62.7176 65.5609 72.3373 60.3333 72.3373C55.1158 72.3373 55.1158 65.462 56.069 62.2522C57.0122 59.0424 65.0793 55.8229 72.6648 55.3768C80.2603 54.9113 73.1464 48.4917 75.5144 47.2505C77.8923 45.9898 85.0063 48.036 91.8894 50.79C98.7625 53.544 105.886 47.1147 112.057 47.2505C118.228 47.3765 98.7725 42.5376 104.933 37.9411C111.114 33.364 97.8294 29.2329 98.2909 24.1903C98.7725 19.138 94.4982 13.1839 94.4982 7.67584C94.4982 5.93033 96.5149 4.78605 99.9665 4.35938C112.629 8.70376 123.696 16.2482 132.185 25.9746C143.162 38.5617 149.774 54.8144 149.774 72.5604Z" fill="#70C573"/>
<path d="M27.7214 48.0896C27.7214 48.0896 33.3804 46.6932 34.6346 43.9586C35.8888 41.2239 43.1231 42.4361 44.9994 39.7015C46.8958 36.9765 51.7722 35.9971 52.9461 33.4467C54.1201 30.8963 55.3944 26.9495 50.518 26.6489C45.6315 26.3483 40.8254 24.2246 40.8756 26.6489C40.9257 29.0829 39.6615 28.472 35.2667 29.9848C30.8619 31.5073 26.1561 29.3157 26.1561 33.4467C26.1561 37.5778 27.4103 42.2034 27.4103 42.2034C27.4103 42.2034 24.8918 45.5392 27.7214 48.0896Z" fill="#70C573"/>
</g>
<mask id="mask2_1960_402" style="mask-type:luminance" maskUnits="userSpaceOnUse" x="28" y="0" width="37" height="25">
<path d="M28.8358 0.19873H64.7966V24.471H28.8358V0.19873Z" fill="white"/>
</mask>
<g mask="url(#mask2_1960_402)">
<path d="M64.0104 0.947754C64.0104 0.947754 55.5921 11.8184 54.0269 12.1093C52.4616 12.3905 47.6454 15.581 46.7524 18.7811C45.8494 21.9715 39.5382 24.0079 34.742 21.9715C29.9359 19.9447 28.8322 17.7047 31.471 13.6027L31.4811 13.593C32.8055 12.6912 34.1601 11.799 35.5548 10.9844C44.0634 5.89337 53.6957 2.39265 64.0104 0.947754Z" fill="#70C573"/>
</g>
<mask id="mask3_1960_402" style="mask-type:luminance" maskUnits="userSpaceOnUse" x="0" y="24" width="22" height="46">
<path d="M0 24.4668H21.131V69.1519H0V24.4668Z" fill="white"/>
</mask>
<g mask="url(#mask3_1960_402)">
<path d="M16.8022 43.6388C16.0096 45.9662 16.2002 48.6717 13.6115 49.4863C11.0027 50.3009 11.9961 53.3167 10.2001 57.186C8.57459 60.6673 1.62122 65.865 0.226532 66.8832C1.49078 51.0088 8.06287 36.5695 18.227 25.2334C19.2806 28.3268 18.8692 33.447 19.8124 35.1246C21.2171 37.6362 17.6049 41.3212 16.8022 43.6388Z" fill="#70C573"/>
</g>
</svg>
